<svg width="146" height="146" viewBox="0 0 146 146" fill="none" xmlns="http://www.w3.org/2000/svg">
<g filter="url(#filter0_d_231_23)">
<rect x="50" y="20" width="46" height="46" rx="10" fill="#A1A425"/>
</g>
<g clip-path="url(#clip0_231_23)">
<path d="M73.5205 32C73.0727 32 72.6235 32.0381 72.1855 32.1134C72.0023 32.1448 71.8793 32.3188 71.9107 32.502C71.9421 32.6854 72.1163 32.8084 72.2994 32.777C72.6998 32.7082 73.1108 32.6733 73.5205 32.6733C77.4706 32.6733 80.6843 35.8869 80.6843 39.8371C80.6843 41.4932 80.0745 43.1283 78.9672 44.4408C78.6273 44.8437 78.2197 45.1919 77.8254 45.5284C76.9896 46.2424 76.1272 46.9787 75.8703 48.2558H75.7896C75.801 48.1337 75.8225 47.973 75.8625 47.7703C75.9601 47.2748 76.1905 46.4225 76.7329 45.1754C76.9598 44.6537 76.7584 44.0469 76.2642 43.7635C75.9778 43.5994 75.6355 43.5703 75.3254 43.6838C75.0157 43.7972 74.7736 44.0399 74.6611 44.3498L74.6353 44.4212C74.6255 44.448 74.6156 44.4752 74.6058 44.5022C73.7365 44.2604 72.8723 44.3761 72.4238 44.47C72.4178 44.4536 72.4118 44.4373 72.406 44.4212L72.3801 44.3498C72.2676 44.04 72.0254 43.7972 71.7157 43.6838C71.4057 43.5703 71.0635 43.5994 70.7769 43.7635C70.2828 44.0469 70.0813 44.6537 70.3082 45.1754C70.3314 45.2287 70.354 45.2814 70.3761 45.3333C70.449 45.5044 70.6466 45.5842 70.8176 45.5114C70.9887 45.4388 71.0686 45.241 70.9957 45.0699C70.9729 45.0162 70.9496 44.9618 70.9256 44.9067C70.8359 44.7004 70.9159 44.46 71.1117 44.3477C71.2254 44.2826 71.3611 44.271 71.4843 44.3161C71.6068 44.361 71.7026 44.457 71.7471 44.5795L71.7731 44.651C71.8121 44.7581 71.8521 44.8683 71.8924 44.9811L72.2983 46.2184C72.4696 46.8122 72.624 47.4832 72.7258 48.2558H71.9277C71.9021 47.9258 71.8147 47.3714 71.551 46.5464C71.4944 46.3693 71.3049 46.2716 71.1279 46.3282C70.9507 46.3849 70.8531 46.5743 70.9096 46.7515C71.1439 47.4841 71.2246 47.9738 71.2512 48.2558H71.1693C70.9092 47.0154 70.0064 46.2045 69.1313 45.4188C68.7146 45.0446 68.3212 44.6912 67.9974 44.2966C66.9242 42.9881 66.3569 41.446 66.3569 39.8371C66.3569 38.3766 66.7935 36.9719 67.6194 35.7746C68.4264 34.6046 69.5479 33.7082 70.8624 33.1827C71.0351 33.1137 71.1189 32.9177 71.05 32.7451C70.9808 32.5724 70.785 32.4883 70.6123 32.5575C69.1743 33.1325 67.9477 34.1127 67.0651 35.3923C66.1614 36.7026 65.6836 38.2395 65.6836 39.8371C65.6836 41.6036 66.3037 43.2932 67.4769 44.7235C67.8332 45.158 68.2645 45.5453 68.6814 45.9197C69.5102 46.6639 70.2958 47.3699 70.5113 48.4006C70.2507 48.5657 70.0768 48.856 70.0768 49.1867V49.8772C70.0768 50.096 70.1531 50.297 70.28 50.4561C70.1531 50.6153 70.0768 50.8162 70.0768 51.035V51.7255C70.0768 52.147 70.3586 52.5036 70.7434 52.6178V52.8015C70.7434 54.0139 71.7298 55 72.9419 55H74.0994C75.3116 55 76.2979 54.0139 76.2979 52.8015V52.6178C76.6827 52.5036 76.9645 52.147 76.9645 51.7255V51.035C76.9645 50.8162 76.8882 50.6153 76.7613 50.4561C76.8882 50.297 76.9645 50.096 76.9645 49.8772V49.1867C76.9645 48.8554 76.7901 48.5647 76.5285 48.3997C76.7364 47.3446 77.4476 46.7367 78.2629 46.0405C78.6777 45.6864 79.1066 45.32 79.4821 44.875C80.6916 43.4411 81.3577 41.6518 81.3577 39.8371C81.3576 35.5156 77.8419 32 73.5205 32V32ZM74.7425 46.2193L75.1327 45.0301C75.1349 45.0236 75.1364 45.0169 75.1382 45.0102C75.1822 44.8871 75.2258 44.7674 75.268 44.651L75.294 44.5795C75.3384 44.457 75.4342 44.361 75.5569 44.3161C75.6799 44.271 75.8157 44.2826 75.9294 44.3477C76.1252 44.46 76.2053 44.7004 76.1154 44.9067C75.6462 45.9859 75.3342 46.9289 75.1885 47.7098C75.1466 47.9342 75.1247 48.1153 75.1138 48.2558H74.3154C74.417 47.4836 74.5714 46.8131 74.7425 46.2193ZM72.6522 45.1111C73.0432 45.0378 73.7149 44.9644 74.3796 45.1382C74.3082 45.3456 74.2364 45.5633 74.1666 45.7925H72.8746C72.8016 45.5533 72.7266 45.3268 72.6522 45.1111ZM73.9769 46.4658C73.84 46.9989 73.72 47.5908 73.6366 48.2557H73.4043C73.3211 47.5908 73.2011 46.9989 73.0641 46.4658H73.9769ZM75.6244 52.8015C75.6244 53.6424 74.9403 54.3266 74.0994 54.3266H72.9418C72.1009 54.3266 71.4167 53.6424 71.4167 52.8015V52.6564H75.6244V52.8015ZM76.2911 51.7253C76.2911 51.8675 76.1756 51.9831 76.0335 51.9831H71.0075C70.8655 51.9831 70.7499 51.8675 70.7499 51.7253V51.035C70.7499 50.9315 70.8113 50.8423 70.8996 50.8013C70.935 50.8055 70.971 50.8081 71.0075 50.8081H76.0335C76.07 50.8081 76.1059 50.8055 76.1414 50.8013C76.2296 50.8422 76.2911 50.9315 76.2911 51.035V51.7253ZM76.2911 49.8772C76.2911 49.9808 76.2296 50.0699 76.1414 50.1108C76.1059 50.1067 76.0701 50.1041 76.0335 50.1041H71.0075C70.971 50.1041 70.935 50.1067 70.8996 50.1108C70.8115 50.0699 70.7499 49.9808 70.7499 49.8772V49.1867C70.7499 49.0446 70.8655 48.9291 71.0077 48.9291H76.0335C76.1756 48.9291 76.2912 49.0446 76.2912 49.1867V49.8772H76.2911Z" fill="white"/>
</g>
<defs>
<filter id="filter0_d_231_23" x="0" y="0" width="146" height="146" filterUnits="userSpaceOnUse" color-interpolation-filters="sRGB">
<feFlood flood-opacity="0" result="BackgroundImageFix"/>
<feColorMatrix in="SourceAlpha" type="matrix" values="0 0 0 0 0 0 0 0 0 0 0 0 0 0 0 0 0 0 127 0" result="hardAlpha"/>
<feOffset dy="30"/>
<feGaussianBlur stdDeviation="25"/>
<feColorMatrix type="matrix" values="0 0 0 0 0.649876 0 0 0 0 0.6625 0 0 0 0 0.128083 0 0 0 0.53 0"/>
<feBlend mode="normal" in2="BackgroundImageFix" result="effect1_dropShadow_231_23"/>
<feBlend mode="normal" in="SourceGraphic" in2="effect1_dropShadow_231_23" result="shape"/>
</filter>
<clipPath id="clip0_231_23">
<rect width="23" height="23" fill="white" transform="translate(62 32)"/>
</clipPath>
</defs>
</svg>
