<svg width="146" height="146" viewBox="0 0 146 146" fill="none" xmlns="http://www.w3.org/2000/svg">
<g filter="url(#filter0_d_231_16)">
<rect x="50" y="20" width="46" height="46" rx="10" fill="#F56767"/>
</g>
<g clip-path="url(#clip0_231_16)">
<path d="M81.4062 36.4922C81.1583 36.4922 80.957 36.6934 80.957 36.9414C80.957 37.1894 81.1583 37.3906 81.4062 37.3906C81.6542 37.3906 81.8555 37.1894 81.8555 36.9414C81.8555 36.6934 81.6542 36.4922 81.4062 36.4922Z" fill="white"/>
<path d="M65.5938 36.4922C65.3458 36.4922 65.1445 36.6934 65.1445 36.9414C65.1445 37.1894 65.3458 37.3906 65.5938 37.3906C65.8417 37.3906 66.043 37.1894 66.043 36.9414C66.043 36.6934 65.8417 36.4922 65.5938 36.4922Z" fill="white"/>
<path d="M84.5508 41.883H84.0135C83.8456 40.5891 83.4398 39.356 82.8031 38.2127C82.6824 37.996 82.4089 37.918 82.1921 38.0387C81.9753 38.1595 81.8975 38.433 82.0182 38.6498C82.58 39.6589 82.9456 40.7444 83.1076 41.883H82.7539C82.5058 41.883 82.3047 42.0841 82.3047 42.3322V44.1291C82.3047 44.3772 82.5058 44.5783 82.7539 44.5783H84.5508C84.7989 44.5783 85 44.3772 85 44.1291V42.3322C85 42.0841 84.7989 41.883 84.5508 41.883ZM84.1015 43.6799H83.2031V42.7815H83.6109C83.611 42.7815 83.6112 42.7815 83.6114 42.7815C83.6115 42.7815 83.6117 42.7815 83.6119 42.7815H84.1015V43.6799Z" fill="white"/>
<path d="M78.4406 45.1451C78.4403 45.1381 78.4401 45.1312 78.4395 45.1242C78.4387 45.1147 78.4374 45.1053 78.436 45.0959C78.4352 45.0902 78.4345 45.0844 78.4334 45.0787C78.4313 45.0677 78.4286 45.0569 78.4258 45.0462C78.4247 45.0421 78.4238 45.038 78.4226 45.0339C78.4186 45.0205 78.414 45.0074 78.4087 44.9945C78.4082 44.9931 78.4078 44.9916 78.4072 44.9902C78.401 44.9752 78.394 44.9606 78.3863 44.9465L73.8942 36.726C73.8154 36.5819 73.6643 36.4922 73.5 36.4922C73.3357 36.4922 73.1846 36.5819 73.1058 36.726L68.6137 44.9465C68.606 44.9606 68.599 44.9752 68.5928 44.9902C68.5922 44.9916 68.5918 44.9931 68.5913 44.9945C68.586 45.0074 68.5814 45.0206 68.5774 45.034C68.5762 45.038 68.5753 45.0421 68.5742 45.0462C68.5714 45.0569 68.5687 45.0677 68.5666 45.0787C68.5656 45.0844 68.5649 45.0902 68.564 45.096C68.5626 45.1053 68.5613 45.1147 68.5605 45.1242C68.5599 45.1312 68.5597 45.1382 68.5594 45.1451C68.5592 45.1508 68.5586 45.1564 68.5586 45.1621C68.5586 45.1651 68.559 45.1679 68.559 45.1709C68.5592 45.1779 68.5596 45.1849 68.5601 45.192C68.5607 45.2009 68.5614 45.2098 68.5625 45.2186C68.5634 45.2248 68.5643 45.231 68.5654 45.2372C68.567 45.2469 68.5689 45.2565 68.5712 45.266C68.5724 45.2713 68.5738 45.2767 68.5753 45.282C68.5781 45.2922 68.5814 45.3023 68.5849 45.3122C68.5859 45.315 68.5865 45.3179 68.5876 45.3207L70.2076 49.6139C70.0777 49.6783 69.9575 49.7639 69.8518 49.8694C69.5972 50.124 69.457 50.4624 69.457 50.8223C69.457 51.4079 69.8326 51.9072 70.3555 52.0927V54.5508C70.3555 54.7989 70.5566 55 70.8047 55H76.1953C76.4434 55 76.6445 54.7989 76.6445 54.5508V52.0934C76.8318 52.0273 77.0035 51.9198 77.1482 51.7751C77.4028 51.5205 77.543 51.1821 77.543 50.8223C77.543 50.2934 77.2366 49.835 76.7922 49.6145L78.4125 45.3207C78.4136 45.3179 78.4142 45.315 78.4152 45.3122C78.4187 45.3023 78.4219 45.2922 78.4247 45.282C78.4262 45.2767 78.4276 45.2713 78.4289 45.266C78.4311 45.2565 78.433 45.2469 78.4347 45.2372C78.4357 45.231 78.4367 45.2248 78.4375 45.2186C78.4386 45.2098 78.4393 45.2009 78.4399 45.192C78.4404 45.1849 78.4409 45.1779 78.441 45.1709C78.441 45.1679 78.4415 45.1651 78.4415 45.1621C78.4414 45.1564 78.4408 45.1508 78.4406 45.1451ZM73.5 44.7129C73.7477 44.7129 73.9492 44.9144 73.9492 45.1621C73.9492 45.4098 73.7477 45.6113 73.5 45.6113C73.2523 45.6113 73.0508 45.4098 73.0508 45.1621C73.0508 44.9144 73.2523 44.7129 73.5 44.7129ZM75.7461 54.1016H71.2539V52.1699H75.7461V54.1016ZM76.5129 51.1398C76.428 51.2247 76.3152 51.2715 76.1953 51.2715H70.8047C70.557 51.2715 70.3555 51.07 70.3555 50.8223C70.3555 50.7024 70.4022 50.5896 70.4871 50.5048C70.5721 50.4198 70.6848 50.373 70.8047 50.373H76.1923C76.1933 50.373 76.1943 50.3732 76.1953 50.3732C76.1958 50.3732 76.1963 50.3731 76.1968 50.3731C76.4438 50.3739 76.6446 50.5751 76.6446 50.8223C76.6445 50.9421 76.5978 51.0549 76.5129 51.1398ZM75.8847 49.4746H71.1153L69.6575 45.6113H70.8047C71.0528 45.6113 71.2539 45.4102 71.2539 45.1621C71.2539 44.914 71.0528 44.7129 70.8047 44.7129H69.7652L73.0508 38.7003V43.8917C72.5279 44.0772 72.1523 44.5765 72.1523 45.1621C72.1523 45.9052 72.7569 46.5098 73.5 46.5098C74.2431 46.5098 74.8477 45.9052 74.8477 45.1621C74.8477 44.5765 74.4721 44.0772 73.9492 43.8917V38.7003L77.2348 44.7129H76.1953C75.9472 44.7129 75.7461 44.914 75.7461 45.1621C75.7461 45.4102 75.9472 45.6113 76.1953 45.6113H77.3425L75.8847 49.4746Z" fill="white"/>
<path d="M64.8078 38.0383C64.591 37.9175 64.3175 37.9954 64.1968 38.2122C63.5601 39.3556 63.1544 40.5887 62.9865 41.8826H62.4492C62.2011 41.8826 62 42.0837 62 42.3318V44.1287C62 44.3768 62.2011 44.5779 62.4492 44.5779H64.2461C64.4942 44.5779 64.6953 44.3768 64.6953 44.1287V42.3318C64.6953 42.0837 64.4942 41.8826 64.2461 41.8826H63.8923C64.0544 40.7439 64.4199 39.6584 64.9818 38.6493C65.1025 38.4326 65.0246 38.159 64.8078 38.0383ZM63.7969 43.6795H62.8984V42.781H63.3881C63.3883 42.781 63.3884 42.781 63.3886 42.781C63.3888 42.781 63.3889 42.781 63.3891 42.781H63.7969V43.6795Z" fill="white"/>
<path d="M83.6523 32C83.0667 32 82.5674 32.3756 82.382 32.8984H74.8477V32.4492C74.8477 32.2011 74.6465 32 74.3984 32H72.6016C72.3535 32 72.1523 32.2011 72.1523 32.4492V32.8984H64.618C64.4326 32.3756 63.9333 32 63.3477 32C62.6046 32 62 32.6046 62 33.3477C62 34.0908 62.6046 34.6953 63.3477 34.6953C63.9333 34.6953 64.4326 34.3197 64.618 33.7969H69.1342C68.1761 34.1978 67.2974 34.7183 66.5742 35.328C66.3845 35.4879 66.3603 35.7713 66.5203 35.961C66.6091 36.0664 66.7361 36.1207 66.8639 36.1207C66.9662 36.1207 67.0689 36.086 67.1532 36.0149C68.4421 34.9284 70.2815 34.1523 72.1523 33.8921V34.2461C72.1523 34.4942 72.3535 34.6953 72.6016 34.6953H74.3984C74.6465 34.6953 74.8477 34.4942 74.8477 34.2461V33.8921C76.7185 34.1523 78.5579 34.9284 79.8468 36.0149C79.9311 36.086 80.0338 36.1207 80.1361 36.1206C80.2639 36.1206 80.3909 36.0664 80.4797 35.9609C80.6397 35.7713 80.6155 35.4879 80.4258 35.328C79.7026 34.7183 78.8239 34.1978 77.8658 33.7969H82.382C82.5674 34.3197 83.0667 34.6953 83.6523 34.6953C84.3954 34.6953 85 34.0908 85 33.3477C85 32.6046 84.3954 32 83.6523 32ZM63.3477 33.7969C63.1 33.7969 62.8984 33.5954 62.8984 33.3477C62.8984 33.1 63.1 32.8984 63.3477 32.8984C63.5954 32.8984 63.7969 33.1 63.7969 33.3477C63.7969 33.5954 63.5954 33.7969 63.3477 33.7969ZM73.9492 33.3477V33.3881V33.7969H73.0508V33.3881V33.3477V32.8984H73.9492V33.3477ZM83.6523 33.7969C83.4046 33.7969 83.2031 33.5954 83.2031 33.3477C83.2031 33.1 83.4046 32.8984 83.6523 32.8984C83.9 32.8984 84.1016 33.1 84.1016 33.3477C84.1016 33.5954 83.9 33.7969 83.6523 33.7969Z" fill="white"/>
</g>
<defs>
<filter id="filter0_d_231_16" x="0" y="0" width="146" height="146" filterUnits="userSpaceOnUse" color-interpolation-filters="sRGB">
<feFlood flood-opacity="0" result="BackgroundImageFix"/>
<feColorMatrix in="SourceAlpha" type="matrix" values="0 0 0 0 0 0 0 0 0 0 0 0 0 0 0 0 0 0 127 0" result="hardAlpha"/>
<feOffset dy="30"/>
<feGaussianBlur stdDeviation="25"/>
<feColorMatrix type="matrix" values="0 0 0 0 0.960784 0 0 0 0 0.403922 0 0 0 0 0.403922 0 0 0 0.49 0"/>
<feBlend mode="normal" in2="BackgroundImageFix" result="effect1_dropShadow_231_16"/>
<feBlend mode="normal" in="SourceGraphic" in2="effect1_dropShadow_231_16" result="shape"/>
</filter>
<clipPath id="clip0_231_16">
<rect width="23" height="23" fill="white" transform="translate(62 32)"/>
</clipPath>
</defs>
</svg>
